<?xml version="1.0" encoding="UTF-8"?>
<svg id="Camada_1" data-name="Camada 1" xmlns="http://www.w3.org/2000/svg" version="1.1" viewBox="0 0 16 16">
  <defs>
    <style>
      .cls-1 {
        fill: #94c83d;
      }

      .cls-1, .cls-2, .cls-3 {
        stroke-width: 0px;
      }

      .cls-2 {
        fill: #4c5b31;
      }

      .cls-3 {
        fill: #6ba543;
      }
    </style>
  </defs>
  <path class="cls-3" d="M14.7,6.7c-.2-.9-.5-1.8-1.1-2.6.2-.2.3-.5.3-.8s-.1-.7-.4-.9c-.5-.5-1.2-.5-1.7,0-.8-.5-1.7-.9-2.6-1.1,0-.6-.6-1.1-1.3-1.1s-1.2.5-1.3,1.1c-.9.2-1.8.5-2.6,1.1-.5-.4-1.2-.4-1.7,0s-.4.6-.4.9.1.6.3.8c-.5.8-.9,1.7-1.1,2.6-.6,0-1.1.6-1.1,1.3s.5,1.2,1.1,1.3c.2.9.5,1.8,1.1,2.6-.2.2-.3.5-.3.8s.1.7.4.9c.2.2.6.4.9.4s.6,0,.8-.3c.8.5,1.7.9,2.6,1.1,0,.6.6,1.1,1.3,1.1s1.2-.5,1.3-1.1c.9-.2,1.8-.5,2.6-1.1.2.2.5.3.8.3s.6-.1.9-.4c.2-.2.4-.6.4-.9s-.1-.6-.3-.8c.5-.8.9-1.7,1.1-2.6.6,0,1.1-.6,1.1-1.3h0c0-.7-.5-1.2-1.1-1.3ZM13.4,7.7c0,0,0,.2,0,.3s0,.2,0,.2l-.4.2c0,.2,0,.4,0,.6l.7-.3c.2.2.4.4.7.5-.2.8-.5,1.6-1,2.3-.4-.2-1-.2-1.4.1l-.3-.2c-.1.1-.2.2-.4.3l.3.3c0,.2-.2.4-.2.6s0,.4.2.6c-.7.5-1.5.8-2.3,1,0-.3-.3-.6-.6-.7l.2-.6c-.2,0-.4,0-.6,0v.4c-.2,0-.2,0-.3,0-.6,0-1,.4-1.2.9-.8-.2-1.6-.5-2.3-1,0-.2.2-.4.2-.6s0-.1,0-.2l.7-.3c-.2-.1-.3-.2-.5-.3l-.4.2c0,0-.1-.2-.2-.2,0,0-.1-.1-.2-.2v-.4c0-.2-.1-.3-.2-.5l-.3.8c-.3,0-.6,0-.8.1-.5-.7-.8-1.5-1-2.3.5-.2.9-.6.9-1.2h.4c0-.2,0-.4,0-.6h-.5c-.1-.2-.4-.5-.8-.6.2-.8.5-1.6,1-2.3.2,0,.4.2.6.2s.2,0,.3,0l.3.6c.1-.2.2-.3.4-.4l-.2-.4s0,0,.1,0c0,0,.1-.1.2-.2l.4.2c.2-.1.3-.3.5-.4l-.7-.3c0,0,0-.2,0-.2,0-.2,0-.4-.2-.6.7-.5,1.5-.8,2.3-1,.2.5.6.9,1.2.9,0,0,0,0,0,0v.4c.3,0,.5,0,.6,0v-.5c.2-.2.4-.4.5-.8.8.2,1.6.5,2.3,1,0,.2-.2.4-.2.6s0,.3,0,.4l-.5.3c.1.1.3.2.4.3l.3-.2s0,0,0,0c.2.2.6.4.9.4s.4,0,.6-.2c.5.7.8,1.5,1,2.3-.3,0-.5.2-.7.5l-.7-.3c0,.2,0,.4,0,.6l.4.2Z"/>
  <g>
    <rect class="cls-2" x="7.3" y="7.7" width=".5" height="1.4"/>
    <path class="cls-2" d="M8.1,8.3c0,0-.1,0-.1.1s0,.1.1.1.1,0,.1-.1c0,0,0-.1-.1-.1Z"/>
    <path class="cls-2" d="M8,6.7c-.7,0-1.3.6-1.3,1.3s.2.7.4.9v-1.4h.7v-.2l1.1.2v1.4c.2-.2.4-.6.4-.9,0-.7-.6-1.3-1.3-1.3Z"/>
  </g>
  <g>
    <path class="cls-1" d="M8,4.4c-2,0-3.6,1.6-3.6,3.6s1.6,3.6,3.6,3.6,3.6-1.6,3.6-3.6-1.6-3.6-3.6-3.6ZM8,9.8c-1,0-1.8-.8-1.8-1.8s.8-1.8,1.8-1.8,1.8.8,1.8,1.8-.8,1.8-1.8,1.8Z"/>
    <path class="cls-1" d="M8,3.5c-2.5,0-4.5,2-4.5,4.5s2,4.5,4.5,4.5,4.5-2,4.5-4.5-2-4.5-4.5-4.5ZM8,11.8c-2.1,0-3.8-1.7-3.8-3.8s1.7-3.8,3.8-3.8,3.8,1.7,3.8,3.8-1.7,3.8-3.8,3.8Z"/>
  </g>
</svg>