<?xml version="1.0" encoding="UTF-8"?>
<svg id="Camada_1" data-name="Camada 1" xmlns="http://www.w3.org/2000/svg" version="1.1" viewBox="0 0 650.7 554">
	<defs>
		<style>
			.logoVerticalDark-1 {
			fill: #94c83d;
			}
			
			.logoVerticalDark-1, .logoVerticalDark-2, .logoVerticalDark-3 {
			stroke-width: 0px;
			}
			
			.logoVerticalDark-2 {
			fill: #fff;
			}
			
			.logoVerticalDark-3 {
			fill: #6ba543;
			}
		</style>
	</defs>
	<g>
		<path class="logoVerticalDark-3" d="M493.7,173.7c-4.3-23.4-13.6-45.8-27.1-65.5,4.5-5.6,7.1-12.5,7.1-19.8s-3.3-16.4-9.3-22.4c-11.5-11.5-29.8-12.2-42.2-2.2-19.7-13.5-42.1-22.8-65.5-27.1-1.7-15.9-15.1-28.3-31.4-28.3s-29.7,12.4-31.4,28.3c-23.4,4.3-45.8,13.6-65.5,27.1-12.4-10-30.7-9.4-42.2,2.1-6,6-9.3,14-9.3,22.4s2.6,14.2,7.1,19.8c-13.5,19.7-22.8,42.1-27.1,65.5-15.9,1.7-28.3,15.1-28.3,31.4s12.5,29.7,28.3,31.4c4.3,23.4,13.6,45.8,27.1,65.5-4.5,5.6-7.1,12.5-7.1,19.8s3.3,16.4,9.3,22.4c6.2,6.2,14.3,9.3,22.4,9.3s14-2.5,19.8-7.1c19.7,13.5,42.1,22.8,65.5,27.1,1.7,15.9,15.1,28.3,31.4,28.3s29.7-12.5,31.4-28.3c23.4-4.3,45.8-13.6,65.5-27.1,5.8,4.7,12.7,7.1,19.8,7.1s16.3-3.1,22.4-9.3c6-6,9.3-14,9.3-22.4s-2.6-14.2-7.1-19.8c13.5-19.7,22.8-42.1,27.1-65.5,15.9-1.7,28.3-15.1,28.3-31.4h0c0-16.3-12.4-29.7-28.3-31.4ZM459.4,198.1c-.5,2.3-.9,4.6-.9,7.1s.2,3.8.6,5.6l-10,4c-.4,4.9-1,9.7-1.9,14.5l16.7-6.7c4,6.1,10.1,10.6,17.2,12.8-4,20.9-12.3,40.9-24.3,58.6-11-5.8-24.7-4.7-34.6,3.4l-7.2-6.1c-3,3.1-6.1,6-9.3,8.8l8.5,7.2c-2.4,4.5-3.8,9.5-3.8,14.7s1.4,10.3,3.8,14.8c-17.7,11.9-37.7,20.2-58.6,24.3-2.4-7.7-7.5-14.1-14.4-18.1l5.1-15.2c-4.6.8-9.2,1.3-13.9,1.6l-3.2,9.6c-1.3-.1-2.5-.4-3.8-.4-14.2,0-26.2,9.5-30.2,22.4-20.9-4-40.9-12.3-58.6-24.3,2.4-4.5,3.8-9.5,3.8-14.8s-.2-3.1-.5-4.6l17.8-7.8c-4.1-2.7-8.1-5.6-11.8-8.7l-10.3,4.5c-1.3-2.1-2.7-4.1-4.5-5.8-1.6-1.6-3.4-3-5.2-4.2l3.7-11c-3.3-4-6.4-8.3-9.2-12.7l-6.4,19.1c-6.8-1.2-13.9,0-20.1,3.3-11.9-17.7-20.2-37.7-24.3-58.6,12.9-4,22.4-15.9,22.4-30.1l9.1-1.8c0-4.4.4-8.8.9-13.1l-12.4,2.5c-3.6-8.6-11-15.1-20-17.9,4-20.9,12.3-40.9,24.3-58.6,4.6,2.4,9.7,3.8,14.8,3.8s5.7-.5,8.5-1.3l6.8,14.5c2.7-3.9,5.7-7.6,8.8-11.1l-4.3-9.3c.9-.7,1.8-1.3,2.7-2.2,1.4-1.4,2.7-3,3.8-4.6l10.5,3.8c3.9-3.3,8-6.3,12.2-9.1l-17.8-6.5c.4-2,.6-4,.6-6.1,0-5.3-1.4-10.3-3.8-14.8,17.7-11.9,37.7-20.2,58.6-24.3,4,12.9,15.9,22.4,30.2,22.4.5,0,.9-.1,1.4-.1l2.3,9.3c4.5.1,9,.5,13.4,1.1l-3.4-13.5c7.9-3.8,13.9-10.7,16.5-19.2,20.9,4,40.9,12.3,58.6,24.3-2.4,4.5-3.8,9.5-3.8,14.8s.7,7.3,2,10.7l-12,6.9c3.6,2.7,7,5.6,10.3,8.7l8.3-4.8c.3.3.4.6.7.9,6.2,6.2,14.3,9.3,22.4,9.3s10.1-1.4,14.8-3.8c11.9,17.7,20.2,37.7,24.3,58.6-6.6,2-12.3,6.1-16.3,11.6l-18.1-8.2c1.1,4.9,1.9,9.9,2.4,15l10.5,4.8Z" />
		<g>
			<rect class="logoVerticalDark-2" x="308.1" y="198.2" width="11.5" height="34.4" />
			<path class="logoVerticalDark-2" d="M328.2,212.1c-1.8,0-3.3,1.5-3.3,3.3s1.5,3.3,3.3,3.3,3.2-1.5,3.3-3.3c0-1.8-1.5-3.3-3.3-3.3Z" />
			<path class="logoVerticalDark-2" d="M325.3,172.3c-18.1,0-32.8,14.7-32.8,32.8s3.8,17.5,9.9,23.5v-36.1h17.2v-5.7l28.7,5.7v36.1c6.1-6,9.9-14.3,9.9-23.5,0-18.1-14.7-32.8-32.8-32.8Z" />
		</g>
		<g>
			<path class="logoVerticalDark-1" d="M325,114.1c-50.2,0-91.1,40.8-91.1,91.1s40.8,91.1,91.1,91.1,91.1-40.8,91.1-91.1-40.8-91.1-91.1-91.1ZM325.3,250.8c-25.2,0-45.6-20.4-45.6-45.6s20.4-45.6,45.6-45.6,45.6,20.4,45.6,45.6-20.4,45.6-45.6,45.6Z" />
			<path class="logoVerticalDark-1" d="M325.3,92.8c-62,0-112.3,50.3-112.3,112.3s50.3,112.3,112.3,112.3,112.3-50.3,112.3-112.3-50.3-112.3-112.3-112.3ZM325,301.5c-53.1,0-96.3-43.2-96.3-96.3s43.2-96.3,96.3-96.3,96.3,43.2,96.3,96.3-43.2,96.3-96.3,96.3Z" />
		</g>
	</g>
	<g>
		<g>
			<path class="logoVerticalDark-2" d="M69.8,471.5c0,15.4-12.8,28-28.6,28s-28.6-12.6-28.6-28,12.8-28,28.6-28,28.6,12.6,28.6,28ZM57.1,471.5c0-9.1-7.2-16.5-15.9-16.5s-15.9,7.4-15.9,16.5,7.2,16.5,15.9,16.5,15.9-7.4,15.9-16.5Z" />
			<path class="logoVerticalDark-2" d="M120.7,478.5c0,11.6-8.5,21-19.1,21s-8.4-1.8-11.5-4.6v23.7h-12.7v-59.8h12.7v3.3c3-2.9,6.9-4.6,11.5-4.6,10.6,0,19.1,9.4,19.1,21ZM108,478.5c0-5.3-4-9.5-8.9-9.5s-8.9,4.3-8.9,9.5,4,9.5,8.9,9.5,8.9-4.3,8.9-9.5Z" />
			<path class="logoVerticalDark-2" d="M166.4,481.6h-27.2c1,3.7,4.5,6.4,9.8,6.4s7.8-.9,11.5-2.4l3.5,10.1s-5.6,3.7-15.4,3.7c-15.9,0-22.8-9.5-22.8-21s7-21,21-21,19.7,7.8,19.7,21,0,2.1-.2,3.2ZM153.2,474c0-2.7-2.2-6.4-7-6.4s-7,3.7-7,6.4h14Z" />
			<path class="logoVerticalDark-2" d="M212.4,475.3v22.9h-12.7v-21.6c0-6.4-3.6-7.6-6.4-7.6s-7.6,1.8-7.6,8.9v20.4h-12.7v-39.5h12.7v3.8c2.7-3.2,6.8-5.1,11.5-5.1,8,0,15.3,5.9,15.3,17.8Z" />
			<path class="logoVerticalDark-2" d="M254.9,489.3h-21.3l-3.3,8.9h-14l22.1-53.5h11.8l22.1,53.5h-14l-3.3-8.9ZM250.5,477.8l-6.3-16.5-6.3,16.5h12.6Z" />
			<path class="logoVerticalDark-2" d="M319.3,462.6c0,9.7-6.5,18.5-17.8,18.5h-11.5v17.2h-12.7v-53.5h21.6c13.9,0,20.4,7.5,20.4,17.8ZM306.6,462.9c0-4.8-3.5-6.7-7.7-6.7h-8.8v13.4h8.8c4.2,0,7.7-2.5,7.7-6.7Z" />
			<path class="logoVerticalDark-2" d="M325.7,498.2v-53.5h12.7v53.5h-12.7Z" />
			<path class="logoVerticalDark-2" d="M416,482.1c0,9.2-6.8,16.1-18.3,16.1h-25v-53.5h20.4c12.3,0,20.4,4,20.4,14s-2.7,9.6-6.4,11.4c6.2,2,9,6.7,9,12ZM385.5,465.1h7.6c4.9,0,7.6-1.4,7.6-4.5s-2.8-4.4-7.6-4.4h-7.6v8.9ZM403.3,481.6c0-3.5-3.5-5-8.9-5h-8.9v10.2h8.9c5.4,0,8.9-1.5,8.9-5.2Z" />
			<path class="logoVerticalDark-2" d="M422.4,481.6v-22.9h12.7v21.6c0,6.4,3.6,7.6,6.4,7.6s7.6-1.8,7.6-8.9v-20.4h12.7v39.5h-12.7v-3.8c-2.7,3.2-6.8,5.1-11.5,5.1-8,0-15.3-5.9-15.3-17.8Z" />
			<path class="logoVerticalDark-2" d="M470.1,446c0-4.2,3.4-7.6,7.6-7.6s7.6,3.4,7.6,7.6-3.4,7.6-7.6,7.6-7.6-3.4-7.6-7.6ZM471.4,458.7h12.7v39.5h-12.7v-39.5Z" />
			<path class="logoVerticalDark-2" d="M506.4,442.2v56h-12.7v-56h12.7Z" />
			<path class="logoVerticalDark-2" d="M543.9,462.1v-19.9h12.7v56h-12.7v-3.3c-3,2.9-6.9,4.6-11.5,4.6-10.6,0-19.1-9.4-19.1-21s8.5-21,19.1-21,8.4,1.8,11.5,4.6ZM543.9,478.5c0-5.3-4-9.5-8.9-9.5s-8.9,4.3-8.9,9.5,4,9.5,8.9,9.5,8.9-4.3,8.9-9.5Z" />
			<path class="logoVerticalDark-2" d="M603.6,481.6h-27.2c1,3.7,4.5,6.4,9.8,6.4s7.8-.9,11.5-2.4l3.5,10.1s-5.6,3.7-15.4,3.7c-15.9,0-22.8-9.5-22.8-21s7-21,21-21,19.7,7.8,19.7,21,0,2.1-.2,3.2ZM590.4,474c0-2.7-2.2-6.4-7-6.4s-7,3.7-7,6.4h14Z" />
			<path class="logoVerticalDark-2" d="M638.1,457.5v14c-2.4-.9-5.3-.6-7.6,0-3.7,1-7.6,5.2-7.6,11.4v15.4h-12.7v-39.5h12.7v8.4c2.6-6.1,8.1-9.1,15.3-9.6Z" />
		</g>
		<g>
			<path class="logoVerticalDark-1" d="M125.8,532.9c0,2.9-2,5-5.4,5h-6.2v-16.8h5c3.6,0,5.8,1.5,5.8,4.4s-.9,2.9-2,3.4c2,.5,2.8,2.3,2.8,4ZM116.6,527.8h3c1.9,0,3-.6,3-2.1s-1.1-2.1-3-2.1h-3v4.2ZM123.4,532.9c0-1.8-1.3-2.7-3.4-2.7h-3.4v5.4h3.4c2.1,0,3.4-.8,3.4-2.7Z" />
			<path class="logoVerticalDark-1" d="M147,521.2v9.4c0,4.4-2,7.6-6.4,7.6s-6.4-3.2-6.4-7.6v-9.4h2.4v10.2c0,2.6,1.5,4.4,4,4.4s4-1.8,4-4.4v-10.2h2.4Z" />
			<path class="logoVerticalDark-1" d="M156.1,538v-16.8h2.4v16.8h-2.4Z" />
			<path class="logoVerticalDark-1" d="M177.3,535.6v2.4h-9.2v-16.8h2.4v14.4h6.8Z" />
			<path class="logoVerticalDark-1" d="M199.7,529.6c0,4.6-3.1,8.4-8.6,8.4h-5v-16.8h5c5.6,0,8.6,3.7,8.6,8.4ZM197.3,529.6c0-3.3-2.3-6-5.5-6h-3.2v12h3.2c3.3,0,5.5-2.7,5.5-6Z" />
			<path class="logoVerticalDark-1" d="M208.9,535.2h3l-2.6,5.6h-1.6l1.2-5.6Z" />
			<path class="logoVerticalDark-1" d="M248.7,529.6c0,4.6-3.1,8.4-8.6,8.4h-5v-16.8h5c5.6,0,8.6,3.7,8.6,8.4ZM246.3,529.6c0-3.3-2.3-6-5.5-6h-3.2v12h3.2c3.3,0,5.5-2.7,5.5-6Z" />
			<path class="logoVerticalDark-1" d="M273.9,529.6c0,4.7-3.8,8.6-8.6,8.6s-8.6-3.8-8.6-8.6,3.8-8.6,8.6-8.6,8.6,3.8,8.6,8.6ZM271.5,529.6c0-3.4-2.7-6.2-6.2-6.2s-6.2,2.7-6.2,6.2,2.7,6.2,6.2,6.2,6.2-2.7,6.2-6.2Z" />
			<path class="logoVerticalDark-1" d="M294.8,534l1,2.2c-1.4,1.3-3.4,2-5.2,2-4.8,0-8.7-3.8-8.7-8.6s3.9-8.6,8.7-8.6,3.8.6,5.2,1.9l-1,2.2c-1.1-1.2-2.5-1.8-4.4-1.8-3.4,0-6.2,2.8-6.2,6.2s2.8,6.2,6.2,6.2,3.2-.6,4.4-1.8Z" />
			<path class="logoVerticalDark-1" d="M317,521.2v9.4c0,4.4-2,7.6-6.4,7.6s-6.4-3.2-6.4-7.6v-9.4h2.4v10.2c0,2.6,1.5,4.4,4,4.4s4-1.8,4-4.4v-10.2h2.4Z" />
			<path class="logoVerticalDark-1" d="M329.5,528l-1.6,9.9h-2.4l2.8-17.2,6.5,12.7,6.5-12.7,2.8,17.2h-2.4l-1.6-9.9-5.3,10.3-5.3-10.3Z" />
			<path class="logoVerticalDark-1" d="M355.4,523.6v4.8h6v2.4h-6v4.8h7.2v2.4h-9.6v-16.8h9.6v2.4h-7.2Z" />
			<path class="logoVerticalDark-1" d="M374.2,526.5v11.5h-2.4v-17.2l11.6,11.9v-11.5h2.4v17.2l-11.6-11.9Z" />
			<path class="logoVerticalDark-1" d="M405.8,521.2v2.4h-4.4v14.4h-2.4v-14.4h-4.4v-2.4h11.2Z" />
			<path class="logoVerticalDark-1" d="M415,535.2h3l-2.6,5.6h-1.6l1.2-5.6Z" />
			<path class="logoVerticalDark-1" d="M453.1,533.1c0,2.9-2.4,5.1-6.3,5.1s-6.2-2.4-6.4-2.7l1.2-2.1c1.4,1.5,3.3,2.5,5.3,2.5s3.9-1,3.9-2.6-1.5-2.2-3.8-2.6c-4.7-.8-6-2.5-6-4.7s2.1-4.9,6-4.9,3.3,0,5.4,2l-1.1,2.2c-.9-.8-2.2-1.8-4.3-1.8s-3.6.9-3.6,2.4,1.1,1.9,3.8,2.4c4,.8,6,2,6,4.9Z" />
			<path class="logoVerticalDark-1" d="M474.7,521.2v16.8h-2.4v-7.2h-8v7.2h-2.4v-16.8h2.4v7.2h8v-7.2h2.4Z" />
			<path class="logoVerticalDark-1" d="M494.5,534.4h-7.5l-1.6,3.6h-2.6l8-17.2,8,17.2h-2.6l-1.6-3.6ZM493.4,532l-2.7-5.9-2.7,5.9h5.3Z" />
			<path class="logoVerticalDark-1" d="M515.9,538l-4.2-5.8h-2.6v5.8h-2.4v-16.8h5.2c4.4,0,6.4,2.2,6.4,5.4s-1.4,4.7-3.9,5.4l4.3,6h-2.8ZM509.1,529.8h3.6c1.7,0,3.2-.9,3.2-3.1s-1.4-3.1-3.2-3.1h-3.6v6.2Z" />
			<path class="logoVerticalDark-1" d="M529.7,523.6v4.8h6v2.4h-6v4.8h7.2v2.4h-9.6v-16.8h9.6v2.4h-7.2Z" />
		</g>
	</g>
</svg>
