<?xml version="1.0" encoding="UTF-8"?>
<svg id="Camada_1" data-name="Camada 1" xmlns="http://www.w3.org/2000/svg" version="1.1" viewBox="0 0 1920 1080">
  <defs>
    <style>
      .cls-1 {
        fill: #94c83d;
      }

      .cls-1, .cls-2, .cls-3 {
        stroke-width: 0px;
      }

      .cls-2 {
        fill: #fff;
      }

      .cls-3 {
        fill: #6ba543;
      }
    </style>
  </defs>
  <g>
    <path class="cls-3" d="M560,508.6c-4.3-23.4-13.6-45.8-27.1-65.5,4.5-5.6,7.1-12.5,7.1-19.8s-3.3-16.4-9.3-22.4c-11.5-11.5-29.8-12.2-42.2-2.2-19.7-13.5-42.1-22.8-65.5-27.1-1.7-15.9-15.1-28.3-31.4-28.3s-29.7,12.4-31.4,28.3c-23.4,4.3-45.8,13.6-65.5,27.1-12.4-10-30.7-9.4-42.2,2.1-6,6-9.3,14-9.3,22.4s2.6,14.2,7.1,19.8c-13.5,19.7-22.8,42.1-27.1,65.5-15.9,1.7-28.3,15.1-28.3,31.4s12.5,29.7,28.3,31.4c4.3,23.4,13.6,45.8,27.1,65.5-4.5,5.6-7.1,12.5-7.1,19.8s3.3,16.4,9.3,22.4c6.2,6.2,14.3,9.3,22.4,9.3s14-2.5,19.8-7.1c19.7,13.5,42.1,22.8,65.5,27.1,1.7,15.9,15.1,28.3,31.4,28.3s29.7-12.5,31.4-28.3c23.4-4.3,45.8-13.6,65.5-27.1,5.8,4.7,12.7,7.1,19.8,7.1s16.3-3.1,22.4-9.3c6-6,9.3-14,9.3-22.4s-2.6-14.2-7.1-19.8c13.5-19.7,22.8-42.1,27.1-65.5,15.9-1.7,28.3-15.1,28.3-31.4h0c0-16.3-12.4-29.7-28.3-31.4ZM525.8,532.9c-.5,2.3-.9,4.6-.9,7.1s.2,3.8.6,5.6l-10,4c-.4,4.9-1,9.7-1.9,14.5l16.7-6.7c4,6.1,10.1,10.6,17.2,12.8-4,20.9-12.3,40.9-24.3,58.6-11-5.8-24.7-4.7-34.6,3.4l-7.2-6.1c-3,3.1-6.1,6-9.3,8.8l8.5,7.2c-2.4,4.5-3.8,9.5-3.8,14.7s1.4,10.3,3.8,14.8c-17.7,11.9-37.7,20.2-58.6,24.3-2.4-7.7-7.5-14.1-14.4-18.1l5.1-15.2c-4.6.8-9.2,1.3-13.9,1.6l-3.2,9.6c-1.3-.1-2.5-.4-3.8-.4-14.2,0-26.2,9.5-30.2,22.4-20.9-4-40.9-12.3-58.6-24.3,2.4-4.5,3.8-9.5,3.8-14.8s-.2-3.1-.5-4.6l17.8-7.8c-4.1-2.7-8.1-5.6-11.8-8.7l-10.3,4.5c-1.3-2.1-2.7-4.1-4.5-5.8-1.6-1.6-3.4-3-5.2-4.2l3.7-11c-3.3-4-6.4-8.3-9.2-12.7l-6.4,19.1c-6.8-1.2-13.9,0-20.1,3.3-11.9-17.7-20.2-37.7-24.3-58.6,12.9-4,22.4-15.9,22.4-30.1l9.1-1.8c0-4.4.4-8.8.9-13.1l-12.4,2.5c-3.6-8.6-11-15.1-20-17.9,4-20.9,12.3-40.9,24.3-58.6,4.6,2.4,9.7,3.8,14.8,3.8s5.7-.5,8.5-1.3l6.8,14.5c2.7-3.9,5.7-7.6,8.8-11.1l-4.3-9.3c.9-.7,1.8-1.3,2.7-2.2,1.4-1.4,2.7-3,3.8-4.6l10.5,3.8c3.9-3.3,8-6.3,12.2-9.1l-17.8-6.5c.4-2,.6-4,.6-6.1,0-5.3-1.4-10.3-3.8-14.8,17.7-11.9,37.7-20.2,58.6-24.3,4,12.9,15.9,22.4,30.2,22.4.5,0,.9-.1,1.4-.1l2.3,9.3c4.5.1,9,.5,13.4,1.1l-3.4-13.5c7.9-3.8,13.9-10.7,16.5-19.2,20.9,4,40.9,12.3,58.6,24.3-2.4,4.5-3.8,9.5-3.8,14.8s.7,7.3,2,10.7l-12,6.9c3.6,2.7,7,5.6,10.3,8.7l8.3-4.8c.3.3.4.6.7.9,6.2,6.2,14.3,9.3,22.4,9.3s10.1-1.4,14.8-3.8c11.9,17.7,20.2,37.7,24.3,58.6-6.6,2-12.3,6.1-16.3,11.6l-18.1-8.2c1.1,4.9,1.9,9.9,2.4,15l10.5,4.8Z"/>
    <g>
      <rect class="cls-2" x="374.5" y="533.1" width="11.5" height="34.4"/>
      <path class="cls-2" d="M394.6,547c-1.8,0-3.3,1.5-3.3,3.3s1.5,3.3,3.3,3.3,3.2-1.5,3.3-3.3c0-1.8-1.5-3.3-3.3-3.3Z"/>
      <path class="cls-2" d="M391.7,507.2c-18.1,0-32.8,14.7-32.8,32.8s3.8,17.5,9.9,23.5v-36.1h17.2v-5.7l28.7,5.7v36.1c6.1-6,9.9-14.3,9.9-23.5,0-18.1-14.7-32.8-32.8-32.8Z"/>
    </g>
    <g>
      <path class="cls-1" d="M391.3,448.9c-50.2,0-91.1,40.8-91.1,91.1s40.8,91.1,91.1,91.1,91.1-40.8,91.1-91.1-40.8-91.1-91.1-91.1ZM391.7,585.6c-25.2,0-45.6-20.4-45.6-45.6s20.4-45.6,45.6-45.6,45.6,20.4,45.6,45.6-20.4,45.6-45.6,45.6Z"/>
      <path class="cls-1" d="M391.7,427.7c-62,0-112.3,50.3-112.3,112.3s50.3,112.3,112.3,112.3,112.3-50.3,112.3-112.3-50.3-112.3-112.3-112.3ZM391.3,636.3c-53.1,0-96.3-43.2-96.3-96.3s43.2-96.3,96.3-96.3,96.3,43.2,96.3,96.3-43.2,96.3-96.3,96.3Z"/>
    </g>
  </g>
  <g>
    <g>
      <path class="cls-2" d="M746.4,510.6c0,26.5-22,48-49.1,48s-49.1-21.5-49.1-48,22-48,49.1-48,49.1,21.5,49.1,48ZM724.6,510.6c0-15.7-12.3-28.4-27.3-28.4s-27.3,12.7-27.3,28.4,12.3,28.4,27.3,28.4,27.3-12.7,27.3-28.4Z"/>
      <path class="cls-2" d="M833.7,522.6c0,19.9-14.6,36-32.7,36s-14.5-3-19.6-7.9v40.6h-21.8v-102.6h21.8v5.7c5.2-4.9,11.9-7.9,19.6-7.9,18.1,0,32.7,16.1,32.7,36ZM811.9,522.6c0-9-6.8-16.4-15.3-16.4s-15.3,7.4-15.3,16.4,6.8,16.4,15.3,16.4,15.3-7.4,15.3-16.4Z"/>
      <path class="cls-2" d="M912,528h-46.6c1.8,6.4,7.6,10.9,16.8,10.9s13.4-1.5,19.8-4.1l6,17.3s-9.5,6.4-26.3,6.4c-27.3,0-39.1-16.4-39.1-36s12-36,36-36,33.8,13.4,33.8,36-.1,3.7-.3,5.5ZM889.3,514.9c0-4.6-3.8-10.9-12-10.9s-12,6.3-12,10.9h24Z"/>
      <path class="cls-2" d="M990.8,517.1v39.3h-21.8v-37.1c0-10.9-6.1-13.1-10.9-13.1s-13.1,3-13.1,15.3v34.9h-21.8v-67.6h21.8v6.5c4.6-5.5,11.7-8.7,19.6-8.7,13.8,0,26.2,10.1,26.2,30.5Z"/>
      <path class="cls-2" d="M1063.6,541.1h-36.6l-5.7,15.3h-24l37.9-91.6h20.2l37.9,91.6h-24l-5.7-15.3ZM1056.1,521.5l-10.8-28.4-10.8,28.4h21.5Z"/>
      <path class="cls-2" d="M1174.1,495.3c0,16.6-11.2,31.6-30.6,31.6h-19.6v29.5h-21.8v-91.6h37.1c23.9,0,34.9,12.8,34.9,30.5ZM1152.3,495.8c0-8.2-6-11.5-13.2-11.5h-15.1v22.9h15.1c7.2,0,13.2-4.2,13.2-11.5Z"/>
      <path class="cls-2" d="M1185,556.4v-91.6h21.8v91.6h-21.8Z"/>
      <path class="cls-2" d="M1339.9,528.8c0,15.8-11.7,27.5-31.4,27.5h-42.8v-91.6h34.9c21,0,34.9,6.8,34.9,24s-4.6,16.5-11,19.5c10.6,3.4,15.4,11.5,15.4,20.6ZM1287.6,499.7h13.1c8.3,0,13.1-2.5,13.1-7.8s-4.8-7.5-13.1-7.5h-13.1v15.3ZM1318.1,527.9c0-6-6-8.6-15.3-8.6h-15.3v17.5h15.3c9.3,0,15.3-2.6,15.3-8.9Z"/>
      <path class="cls-2" d="M1350.8,528v-39.3h21.8v37.1c0,10.9,6.1,13.1,10.9,13.1s13.1-3,13.1-15.3v-34.9h21.8v67.6h-21.8v-6.5c-4.6,5.5-11.7,8.7-19.6,8.7-13.8,0-26.2-10.1-26.2-30.5Z"/>
      <path class="cls-2" d="M1432.7,466.9c0-7.2,5.9-13.1,13.1-13.1s13.1,5.9,13.1,13.1-5.9,13.1-13.1,13.1-13.1-5.9-13.1-13.1ZM1434.8,488.7h21.8v67.6h-21.8v-67.6Z"/>
      <path class="cls-2" d="M1494.8,460.4v96h-21.8v-96h21.8Z"/>
      <path class="cls-2" d="M1559.2,494.5v-34.1h21.8v96h-21.8v-5.7c-5.2,4.9-11.9,7.9-19.6,7.9-18.1,0-32.7-16.1-32.7-36s14.6-36,32.7-36,14.5,3,19.6,7.9ZM1559.2,522.6c0-9-6.8-16.4-15.3-16.4s-15.3,7.4-15.3,16.4,6.8,16.4,15.3,16.4,15.3-7.4,15.3-16.4Z"/>
      <path class="cls-2" d="M1661.5,528h-46.6c1.8,6.4,7.6,10.9,16.8,10.9s13.4-1.5,19.8-4.1l6,17.3s-9.5,6.4-26.3,6.4c-27.3,0-39.1-16.4-39.1-36s12-36,36-36,33.8,13.4,33.8,36-.1,3.7-.3,5.5ZM1638.9,514.9c0-4.6-3.8-10.9-12-10.9s-12,6.3-12,10.9h24Z"/>
      <path class="cls-2" d="M1720.7,486.6v24c-4.1-1.5-9.1-1.1-13.1,0-6.4,1.6-13.1,8.9-13.1,19.5v26.3h-21.8v-67.6h21.8v14.3c4.5-10.5,13.9-15.7,26.2-16.5Z"/>
    </g>
    <g>
      <path class="cls-1" d="M1015.4,615.9c0,5-3.5,8.7-9.3,8.7h-10.6v-28.8h8.6c6.2,0,9.9,2.6,9.9,7.5s-1.5,5.1-3.4,5.8c3.4.8,4.8,3.9,4.8,6.8ZM999.6,607.1h5.1c3.3,0,5.1-1.1,5.1-3.6s-1.9-3.6-5.1-3.6h-5.1v7.2ZM1011.3,615.9c0-3.2-2.3-4.6-5.8-4.6h-5.8v9.3h5.8c3.6,0,5.8-1.5,5.8-4.6Z"/>
      <path class="cls-1" d="M1051.7,595.8v16.1c0,7.6-3.4,13-11,13s-11-5.4-11-13v-16.1h4.1v17.5c0,4.5,2.5,7.5,6.9,7.5s6.9-3.1,6.9-7.5v-17.5h4.1Z"/>
      <path class="cls-1" d="M1067.5,624.6v-28.8h4.1v28.8h-4.1Z"/>
      <path class="cls-1" d="M1103.8,620.5v4.1h-15.8v-28.8h4.1v24.7h11.7Z"/>
      <path class="cls-1" d="M1142.2,610.2c0,8-5.3,14.4-14.7,14.4h-8.6v-28.8h8.6c9.6,0,14.7,6.4,14.7,14.4ZM1138.1,610.2c0-5.7-3.9-10.3-9.5-10.3h-5.6v20.6h5.6c5.6,0,9.5-4.6,9.5-10.3Z"/>
      <path class="cls-1" d="M1157.9,619.8h5.1l-4.5,9.6h-2.7l2.1-9.6Z"/>
      <path class="cls-1" d="M1226.1,610.2c0,8-5.3,14.4-14.7,14.4h-8.6v-28.8h8.6c9.6,0,14.7,6.4,14.7,14.4ZM1222,610.2c0-5.7-3.9-10.3-9.5-10.3h-5.6v20.6h5.6c5.6,0,9.5-4.6,9.5-10.3Z"/>
      <path class="cls-1" d="M1269.3,610.2c0,8.1-6.6,14.7-14.7,14.7s-14.7-6.6-14.7-14.7,6.6-14.7,14.7-14.7,14.7,6.6,14.7,14.7ZM1265.2,610.2c0-5.9-4.7-10.6-10.6-10.6s-10.6,4.7-10.6,10.6,4.7,10.6,10.6,10.6,10.6-4.7,10.6-10.6Z"/>
      <path class="cls-1" d="M1305.2,617.7l1.8,3.9c-2.4,2.2-5.9,3.4-9,3.4-8.3,0-15-6.6-15-14.7s6.7-14.7,15-14.7,6.6,1.1,9,3.3l-1.8,3.9c-2-2-4.2-3.1-7.5-3.1-5.9,0-10.6,4.8-10.6,10.6s4.8,10.6,10.6,10.6,5.5-1.1,7.5-3.1Z"/>
      <path class="cls-1" d="M1343.3,595.8v16.1c0,7.6-3.4,13-11,13s-11-5.4-11-13v-16.1h4.1v17.5c0,4.5,2.5,7.5,6.9,7.5s6.9-3.1,6.9-7.5v-17.5h4.1Z"/>
      <path class="cls-1" d="M1364.6,607.6l-2.7,17h-4.2l4.9-29.5,11.2,21.8,11.2-21.8,4.9,29.5h-4.2l-2.7-17-9.2,17.7-9.2-17.7Z"/>
      <path class="cls-1" d="M1409.1,599.9v8.2h10.3v4.1h-10.3v8.2h12.3v4.1h-16.4v-28.8h16.4v4.1h-12.3Z"/>
      <path class="cls-1" d="M1441.3,604.9v19.7h-4.1v-29.5l19.9,20.4v-19.7h4.1v29.5l-19.9-20.4Z"/>
      <path class="cls-1" d="M1495.4,595.8v4.1h-7.5v24.7h-4.1v-24.7h-7.5v-4.1h19.2Z"/>
      <path class="cls-1" d="M1511.2,619.8h5.1l-4.5,9.6h-2.7l2.1-9.6Z"/>
      <path class="cls-1" d="M1576.6,616.2c0,5-4.2,8.8-10.9,8.8s-10.6-4.2-11.1-4.7l2.1-3.7c2.4,2.7,5.7,4.2,9.1,4.2s6.7-1.8,6.7-4.5-2.6-3.7-6.6-4.4c-8-1.4-10.3-4.2-10.3-8.1s3.6-8.4,10.4-8.4,5.7.1,9.3,3.4l-2,3.7c-1.5-1.5-3.8-3-7.4-3s-6.2,1.5-6.2,4.1,2,3.3,6.5,4.2c6.9,1.3,10.3,3.5,10.3,8.4Z"/>
      <path class="cls-1" d="M1613.6,595.8v28.8h-4.1v-12.3h-13.7v12.3h-4.1v-28.8h4.1v12.3h13.7v-12.3h4.1Z"/>
      <path class="cls-1" d="M1647.5,618.4h-12.9l-2.8,6.2h-4.5l13.7-29.5,13.7,29.5h-4.5l-2.8-6.2ZM1645.6,614.3l-4.6-10.1-4.6,10.1h9.2Z"/>
      <path class="cls-1" d="M1684.2,624.6l-7.2-9.9h-4.5v9.9h-4.1v-28.8h8.9c7.5,0,11,3.8,11,9.2s-2.4,8.1-6.7,9.3l7.4,10.3h-4.8ZM1672.6,610.6h6.1c3,0,5.5-1.5,5.5-5.3s-2.4-5.4-5.4-5.4h-6.2v10.6Z"/>
      <path class="cls-1" d="M1707.8,599.9v8.2h10.3v4.1h-10.3v8.2h12.3v4.1h-16.4v-28.8h16.4v4.1h-12.3Z"/>
    </g>
  </g>
</svg>