<?xml version="1.0" encoding="UTF-8"?>
<svg id="Camada_1" data-name="Camada 1" xmlns="http://www.w3.org/2000/svg" version="1.1" viewBox="0 0 24 24">
	<defs>
		<style>
			.cls-1 {
			stroke-width: 0px;
			}
		</style>
	</defs>
	<path class="cls-1" d="M5.3,17.3l-.4.4c-.4.4-.4,1,0,1.4s1,.4,1.4,0l.4-.4c.4-.4.4-1,0-1.4-.4-.4-1-.4-1.4,0Z" />
	<path class="cls-1" d="M3.6,11h-.6c-.6,0-1,.4-1,1s.4,1,1,1h.6c.6,0,1-.4,1-1s-.4-1-1-1Z" />
	<path class="cls-1" d="M5.3,6.7c.4.4,1,.4,1.4,0,.4-.4.4-1,0-1.4l-.4-.4c-.4-.4-1-.4-1.4,0-.4.4-.4,1,0,1.4l.4.4Z" />
	<path class="cls-1" d="M12,4.6c.6,0,1-.4,1-1v-.6c0-.6-.4-1-1-1s-1,.4-1,1v.6c0,.6.4,1,1,1Z" />
	<path class="cls-1" d="M21,11h-.6c-.6,0-1,.4-1,1s.4,1,1,1h.6c.6,0,1-.4,1-1s-.4-1-1-1Z" />
	<path class="cls-1" d="M18.7,17.3c-.4-.4-1-.4-1.4,0-.4.4-.4,1,0,1.4l.4.4c.4.4,1,.4,1.4,0,.4-.4.4-1,0-1.4l-.4-.4Z" />
	<path class="cls-1" d="M12,19.4c-.6,0-1,.4-1,1v.6c0,.6.4,1,1,1s1-.4,1-1v-.6c0-.6-.4-1-1-1Z" />
	<path class="cls-1" d="M17.7,4.9l-.4.4c-.4.4-.4,1,0,1.4.4.4,1,.4,1.4,0l.4-.4c.4-.4.4-1,0-1.4-.4-.4-1-.4-1.4,0Z" />
	<circle class="cls-1" cx="12" cy="12" r="6.5" />
</svg>
